# xmcd CD database file
#
# Track frame offsets:
#	150
#	18102
#	34700
#	56410
#	85665
#
# Disc length: 4440 seconds
#
# Revision: 0
# Processed by: cddbd v1.5.1PL0 Copyright (c) Steve Scherf et al.
# Submitted via: CDex 1.51
#
DISCID=2b115605
DTITLE=美少女クラブ - 東京 Gourmet Tour
DYEAR=2004
DGENRE=JPop
TTITLE0=東京 Gourmet Tour
TTITLE1=いくじなし
TTITLE2=DO YOUR BEST!! 〜SUPA FUNKALICIOUS REMIX〜
TTITLE3=東京 Gourmet Tour (Original Karaoke)
TTITLE4=CCCD
EXTD=YEAR: 2004
EXTT0=
EXTT1=
EXTT2=
EXTT3=
EXTT4=
PLAYORDER=
